<svg viewBox="0 0 13 13"  xmlns="http://www.w3.org/2000/svg">
<path d="M2.6428 5.37444L1.03182 6.98557C0.371157 7.64629 0 8.54242 0 9.47683C0 10.4112 0.371157 11.3074 1.03182 11.9681C1.69248 12.6288 2.58853 13 3.52285 13C4.45717 13 5.35322 12.6288 6.01389 11.9681L8.1603 9.82031C8.55869 9.42182 8.85569 8.93357 9.02637 8.39653C9.19704 7.8595 9.23641 7.28936 9.14116 6.73396C9.04592 6.17856 8.81885 5.65412 8.47901 5.20464C8.13916 4.75517 7.69647 4.39379 7.18807 4.15083L6.5 4.83896C6.43015 4.90895 6.36939 4.98746 6.31917 5.07265C6.71197 5.18558 7.0685 5.39908 7.35351 5.69204C7.63852 5.985 7.84214 6.34728 7.94425 6.74306C8.04636 7.13884 8.04342 7.55442 7.93571 7.94871C7.82801 8.34301 7.61928 8.70236 7.33015 8.99126L5.18491 11.1379C4.74426 11.5786 4.14661 11.8261 3.52344 11.8261C2.90027 11.8261 2.30262 11.5786 1.86197 11.1379C1.42132 10.6972 1.17376 10.0995 1.17376 9.47624C1.17376 8.85301 1.42132 8.25531 1.86197 7.81462L2.7931 6.88458C2.66172 6.39223 2.61097 5.88302 2.6428 5.37444Z" />
<path d="M4.8397 3.17852C4.44131 3.577 4.14431 4.06526 3.97363 4.60229C3.80296 5.13932 3.76359 5.70947 3.85883 6.26487C3.95408 6.82026 4.18115 7.34471 4.52099 7.79418C4.86084 8.24365 5.30353 8.60503 5.81193 8.84799L6.72192 7.93674C6.32381 7.82995 5.96082 7.62024 5.66942 7.3287C5.37803 7.03716 5.16849 6.67404 5.06187 6.27585C4.95525 5.87766 4.95531 5.45842 5.06203 5.06026C5.16875 4.66209 5.37838 4.29904 5.66985 4.00757L7.81509 1.86096C8.25574 1.42027 8.85339 1.1727 9.47656 1.1727C10.0997 1.1727 10.6974 1.42027 11.138 1.86096C11.5787 2.30165 11.8262 2.89936 11.8262 3.52258C11.8262 4.14581 11.5787 4.74352 11.138 5.18421L10.2069 6.11424C10.3384 6.60745 10.3889 7.11826 10.3572 7.62556L11.9682 6.01443C12.6288 5.35371 13 4.45757 13 3.52317C13 2.58877 12.6288 1.69264 11.9682 1.03191C11.3075 0.37119 10.4115 0 9.47715 0C8.54283 0 7.64677 0.37119 6.98611 1.03191L4.8397 3.17852Z" />
</svg>
