<svg id="Réteg_2" data-name="Réteg 2" xmlns="http://www.w3.org/2000/svg" viewBox="0 0 19.3 23.97"><defs></defs><path class="cls-1" d="M3.53,11.19"/><path class="cls-2" d="M6.66,24a5.55,5.55,0,0,1-2.82-.76l-1-.58A5.67,5.67,0,0,1,.76,14.9l1.77-3.06a.9.9,0,0,1,1.23-.33.91.91,0,0,1,.33,1.23L2.31,15.8a3.88,3.88,0,0,0,1.41,5.27l1,.58A3.84,3.84,0,0,0,10,20.25l2.29-4A3.84,3.84,0,0,0,10.88,11l-1-.59a3.7,3.7,0,0,0-1.61-.5.91.91,0,0,1-.82-1,.9.9,0,0,1,1-.82,5.67,5.67,0,0,1,2.36.74l1,.59a5.64,5.64,0,0,1,2.07,7.72l-2.29,4A5.63,5.63,0,0,1,6.66,24Z"/><path class="cls-2" d="M11,15.84h-.08a5.63,5.63,0,0,1-2.35-.74l-1-.59A5.64,5.64,0,0,1,5.44,6.79l2.29-4A5.64,5.64,0,0,1,15.45.76l1,.59a5.66,5.66,0,0,1,2.07,7.72l-1.77,3.06a.9.9,0,0,1-1.23.33.89.89,0,0,1-.33-1.22L17,8.17a3.82,3.82,0,0,0,.38-2.92,3.77,3.77,0,0,0-1.79-2.34l-1-.59A3.85,3.85,0,0,0,9.29,3.73L7,7.69A3.83,3.83,0,0,0,8.41,13l1,.59a3.81,3.81,0,0,0,1.6.51A.9.9,0,0,1,11,15.84Z"/></svg>