<svg id="Réteg_2" data-name="Réteg 2" xmlns="http://www.w3.org/2000/svg" viewBox="0 0 24 22.03"><defs></defs><path class="cls-1" d="M16.17,10.62a.9.9,0,0,0-.9.9v3.07a1.1,1.1,0,0,1-1.1,1.1H11.75V8a2.92,2.92,0,0,0-1.49-2.54L4.31,2.16A2.85,2.85,0,0,0,2.92,1.8H14.17a1.1,1.1,0,0,1,1.1,1.1.9.9,0,0,0,1.8,0A2.9,2.9,0,0,0,14.17,0H2.9A2.9,2.9,0,0,0,0,2.9V16a.94.94,0,0,0,.07.34,2.87,2.87,0,0,0,1.42,2l6,3.31a2.86,2.86,0,0,0,2.88,0,2.88,2.88,0,0,0,1.43-2.5V17.49h2.42a2.9,2.9,0,0,0,2.9-2.9V11.52A.9.9,0,0,0,16.17,10.62ZM10,19.12a1.1,1.1,0,0,1-1.64,1h0L2.37,16.77a1.09,1.09,0,0,1-.57-1V4.7a1.08,1.08,0,0,1,.54-1,1.14,1.14,0,0,1,.57-.16,1,1,0,0,1,.53.15L9.38,7.05A1.09,1.09,0,0,1,10,8Z" transform="translate(0 0)"/><path class="cls-1" d="M23.73,6.39,21,3.66a.91.91,0,0,0-1.28,0,.9.9,0,0,0,0,1.27l1.2,1.2h-6.8a.9.9,0,0,0,0,1.8h6.8l-1.2,1.19A.9.9,0,0,0,21,10.39l2.72-2.73A.88.88,0,0,0,23.73,6.39Z" transform="translate(0 0)"/></svg>