<?xml version="1.0" encoding="UTF-8"?><svg xmlns="http://www.w3.org/2000/svg" viewBox="0 0 445.04 145.04"><defs><style>.d{fill:#fff;}</style></defs><g id="a"/><g id="b"><g id="c"><g><g><path class="d" d="M173,14.75c-1.79-1.62-2.68-3.64-2.68-6.08s.89-4.56,2.68-6.21c1.78-1.64,4.15-2.46,7.1-2.46s5.23,.82,7.01,2.46,2.68,3.71,2.68,6.21-.89,4.46-2.68,6.08-4.12,2.42-7.01,2.42-5.31-.81-7.1-2.42Zm15.34,6.84v47.68h-16.66V21.59h16.66Z"/><path class="d" d="M242.15,26.65c3.23,3.65,4.85,8.6,4.85,14.83v27.79h-16.66v-25.58c0-2.72-.71-4.86-2.12-6.42-1.42-1.56-3.31-2.34-5.7-2.34s-4.45,.78-5.86,2.34c-1.42,1.56-2.12,3.7-2.12,6.42v25.58h-16.66V21.59h16.66v6.8c1.47-2.15,3.46-3.9,5.95-5.23,2.49-1.33,5.35-2,8.58-2,5.5,0,9.86,1.83,13.09,5.48Z"/><path class="d" d="M284.3,55.08v14.19h-7.22c-12.18,0-18.28-6.04-18.28-18.1v-15.73h-5.86v-13.85h5.86V10.03h16.75v11.56h8.67v13.85h-8.67v15.98c0,1.3,.3,2.24,.89,2.8,.6,.57,1.6,.85,3.02,.85h4.84Z"/><path class="d" d="M337.26,48.79h-31.54c.17,2.61,.89,4.55,2.17,5.82,1.28,1.27,2.9,1.91,4.89,1.91,2.78,0,4.76-1.25,5.95-3.74h17.76c-.74,3.29-2.17,6.22-4.29,8.8-2.12,2.58-4.8,4.6-8.03,6.08-3.23,1.47-6.8,2.21-10.71,2.21-4.7,0-8.88-.99-12.54-2.98-3.66-1.98-6.52-4.82-8.58-8.5-2.07-3.68-3.1-8.02-3.1-13s1.02-9.31,3.06-12.96c2.04-3.65,4.89-6.47,8.54-8.46,3.66-1.98,7.86-2.97,12.62-2.97s8.87,.96,12.5,2.89c3.63,1.93,6.46,4.69,8.5,8.29,2.04,3.6,3.06,7.83,3.06,12.71,0,1.3-.08,2.61-.25,3.91Zm-16.75-8.08c0-2.04-.68-3.64-2.04-4.8-1.36-1.16-3.06-1.74-5.1-1.74s-3.71,.55-5.01,1.66c-1.3,1.11-2.15,2.73-2.55,4.89h14.71Z"/><path class="d" d="M344.65,32.47c2.04-3.68,4.89-6.52,8.54-8.5,3.66-1.98,7.83-2.97,12.54-2.97,6.06,0,11.16,1.66,15.3,4.97,4.14,3.32,6.8,7.95,7.99,13.9h-17.68c-1.02-3.12-3-4.67-5.95-4.67-2.1,0-3.75,.87-4.97,2.59-1.22,1.73-1.83,4.26-1.83,7.61s.61,5.89,1.83,7.65c1.22,1.76,2.88,2.63,4.97,2.63,3,0,4.99-1.56,5.95-4.67h17.68c-1.19,5.89-3.85,10.51-7.99,13.85-4.14,3.34-9.24,5.02-15.3,5.02-4.7,0-8.88-.99-12.54-2.98-3.66-1.98-6.5-4.82-8.54-8.5-2.04-3.68-3.06-8.02-3.06-13s1.02-9.24,3.06-12.92Z"/><path class="d" d="M440.24,26.65c3.2,3.65,4.8,8.6,4.8,14.83v27.79h-16.66v-25.58c0-2.72-.71-4.86-2.12-6.42-1.42-1.56-3.32-2.34-5.7-2.34s-4.45,.78-5.87,2.34c-1.42,1.56-2.12,3.7-2.12,6.42v25.58h-16.66V6.38h16.66V28.39c1.47-2.15,3.47-3.9,5.99-5.23,2.52-1.33,5.43-2,8.71-2,5.44,0,9.76,1.83,12.96,5.48Z"/><path class="d" d="M180.35,143.21c-2.83-1.22-5.07-2.92-6.72-5.1-1.64-2.18-2.55-4.69-2.72-7.52h7.99c.23,2.32,1.32,4.22,3.27,5.69,1.96,1.47,4.52,2.21,7.69,2.21,2.95,0,5.27-.65,6.97-1.96,1.7-1.3,2.55-2.95,2.55-4.93s-.91-3.56-2.72-4.55c-1.81-.99-4.62-1.97-8.42-2.93-3.46-.91-6.28-1.83-8.46-2.76-2.18-.94-4.05-2.32-5.61-4.17-1.56-1.84-2.34-4.26-2.34-7.27,0-2.38,.71-4.56,2.12-6.54,1.42-1.98,3.43-3.56,6.03-4.72,2.61-1.16,5.58-1.74,8.93-1.74,5.16,0,9.32,1.3,12.49,3.91,3.17,2.61,4.87,6.18,5.1,10.71h-7.73c-.17-2.44-1.15-4.39-2.93-5.87-1.78-1.47-4.18-2.21-7.18-2.21-2.78,0-4.99,.59-6.63,1.79-1.64,1.19-2.46,2.75-2.46,4.67,0,1.53,.5,2.79,1.49,3.78,.99,.99,2.24,1.79,3.74,2.38,1.5,.6,3.58,1.26,6.25,2,3.34,.91,6.06,1.8,8.16,2.68,2.1,.88,3.9,2.2,5.4,3.95,1.5,1.76,2.28,4.05,2.34,6.88,0,2.55-.71,4.84-2.12,6.88-1.42,2.04-3.41,3.64-5.99,4.8-2.58,1.16-5.54,1.74-8.88,1.74-3.57,0-6.77-.61-9.6-1.83Z"/><path class="d" d="M227.27,104.07v27.46c0,2.27,.48,3.87,1.45,4.8,.96,.93,2.63,1.4,5.02,1.4h5.69v6.54h-6.97c-4.31,0-7.54-.99-9.69-2.97s-3.23-5.24-3.23-9.78v-27.46h-6.04v-6.38h6.04v-11.73h7.73v11.73h12.15v6.38h-12.15Z"/><path class="d" d="M290.09,97.69v46.58h-7.74v-6.88c-1.47,2.38-3.53,4.24-6.16,5.57-2.63,1.33-5.54,2-8.71,2-3.63,0-6.88-.75-9.78-2.25-2.89-1.5-5.17-3.75-6.84-6.76-1.67-3-2.51-6.66-2.51-10.96v-27.29h7.65v26.26c0,4.59,1.16,8.12,3.49,10.58,2.32,2.46,5.5,3.7,9.52,3.7s7.39-1.27,9.77-3.83c2.38-2.55,3.57-6.26,3.57-11.13v-25.58h7.74Z"/><path class="d" d="M302.33,108.28c1.93-3.6,4.58-6.39,7.95-8.37,3.37-1.98,7.15-2.97,11.35-2.97,3.63,0,7,.84,10.12,2.51,3.12,1.67,5.5,3.87,7.14,6.59v-24.65h7.82v62.9h-7.82v-8.75c-1.53,2.78-3.8,5.06-6.8,6.84-3,1.78-6.52,2.68-10.54,2.68s-7.89-1.02-11.26-3.06c-3.37-2.04-6.02-4.9-7.95-8.58-1.93-3.68-2.89-7.88-2.89-12.58s.96-8.94,2.89-12.54Zm34.42,3.44c-1.42-2.61-3.33-4.6-5.74-5.99-2.41-1.39-5.06-2.08-7.95-2.08s-5.53,.68-7.91,2.04c-2.38,1.36-4.28,3.34-5.7,5.95-1.42,2.61-2.12,5.67-2.12,9.18s.71,6.67,2.12,9.31c1.42,2.63,3.32,4.65,5.7,6.04s5.01,2.08,7.91,2.08,5.54-.69,7.95-2.08c2.41-1.39,4.32-3.4,5.74-6.04,1.42-2.63,2.12-5.71,2.12-9.22s-.71-6.57-2.12-9.18Z"/><path class="d" d="M360.04,88.6c-1.02-1.02-1.53-2.27-1.53-3.74s.51-2.72,1.53-3.74c1.02-1.02,2.27-1.53,3.74-1.53s2.62,.51,3.61,1.53c.99,1.02,1.49,2.27,1.49,3.74s-.5,2.72-1.49,3.74c-.99,1.02-2.2,1.53-3.61,1.53s-2.72-.51-3.74-1.53Zm7.48,9.09v46.58h-7.74v-46.58h7.74Z"/><path class="d" d="M388.3,142.06c-3.54-1.98-6.32-4.8-8.33-8.46-2.01-3.65-3.02-7.89-3.02-12.71s1.03-8.97,3.1-12.62c2.07-3.66,4.89-6.46,8.46-8.42s7.57-2.93,11.99-2.93,8.42,.98,11.98,2.93c3.57,1.96,6.39,4.75,8.46,8.37,2.07,3.63,3.1,7.85,3.1,12.67s-1.06,9.05-3.19,12.71c-2.12,3.66-5,6.47-8.63,8.46-3.63,1.98-7.65,2.97-12.07,2.97s-8.32-.99-11.86-2.97Zm19.68-5.78c2.44-1.3,4.41-3.26,5.91-5.87,1.5-2.61,2.25-5.78,2.25-9.52s-.74-6.91-2.21-9.52c-1.47-2.61-3.4-4.55-5.78-5.82-2.38-1.27-4.96-1.91-7.73-1.91s-5.43,.64-7.78,1.91c-2.35,1.28-4.24,3.22-5.65,5.82-1.42,2.61-2.12,5.78-2.12,9.52s.69,7,2.08,9.61c1.39,2.61,3.24,4.55,5.57,5.82,2.32,1.27,4.87,1.91,7.65,1.91s5.38-.65,7.82-1.96Z"/></g><path class="d" d="M131.15,.56H12.85C5.75,.56,0,6.31,0,13.4v118.31c0,7.09,5.75,12.85,12.85,12.85h118.31c7.09,0,12.85-5.75,12.85-12.85V13.4c0-7.09-5.75-12.85-12.85-12.85Zm4.27,61.51l-15.83,23.63c-1.39,2.08-3.94,2.99-6.33,2.28-2.4-.72-4.02-2.88-4.05-5.38l-.1-9.77-10.73,13.58c-1.49,1.89-4.03,2.63-6.31,1.84-2.01-.7-3.44-2.46-3.75-4.52l-10.1,25.26c-.87,2.18-2.99,3.56-5.27,3.56-.35,0-.71-.03-1.07-.1-2.66-.51-4.6-2.85-4.6-5.57V57.67l-10.04,25.1c-1.01,2.52-3.67,3.97-6.34,3.46-2.66-.51-4.6-2.85-4.6-5.57v-7.8l-10.88,13.6c-1.5,1.88-4.04,2.6-6.3,1.81-2.27-.8-3.79-2.95-3.79-5.35v-7.99l-8.94,13.35c-1.45,2.16-4.37,2.74-6.53,1.29-2.16-1.45-2.74-4.37-1.29-6.53l15.8-23.59c1.4-2.09,3.96-3,6.36-2.27,2.4,.73,4.02,2.91,4.02,5.42v9.63l10.88-13.6c1.5-1.88,4.04-2.6,6.3-1.81,2.01,.7,3.43,2.47,3.73,4.53l10.1-25.25c1.01-2.52,3.67-3.97,6.34-3.46,2.66,.51,4.6,2.85,4.6,5.57v49.22l10.04-25.1c1.01-2.52,3.67-3.97,6.34-3.46,2.66,.51,4.6,2.85,4.6,5.57v7.67l10.62-13.44c1.49-1.88,4.01-2.63,6.28-1.85,2.27,.78,3.81,2.91,3.84,5.31l.08,8.28,9.1-13.58c1.45-2.16,4.37-2.74,6.53-1.29,2.16,1.45,2.74,4.37,1.29,6.53Z"/></g></g></g></svg>